# generated from PmQm by Jehee Lee
:FULLY-SPECIFIED
:DEGREES
416
root 72.45211279 38.2878 -103.378158 -179.6854934 74.71095671 178.8489898
RightUpLeg -28.63960566 3.886121574 0.7093357461
RightLeg 2.794990778 0 0
RightFoot 3.956109272 2.829398995 2.698634954
RightToes 2.32829e-010 -1.59028e-015 9.93923e-017
Spine -11.0823 -6.32863 -8.25998
Spine1 14.0797 -7.86548 7.06816
HEad -8.76553 5.69424 0.709591
LeftShoulder1 9.93923e-017 0 1.22299e-017
LeftArm 29.0949 15.9192 -78.3907
LeftForeArm -49.8271 -27.3878 17.7096
LeftHand 0.82302 5.83404 -0.371178
RightShoulder 1.98785e-016 -4.96962e-017 1.55301e-017
RightArm 10.2148 -62.1444 74.3148
RightForeArm -26.0691 15.2511 -0.567928
RightHand 1.12095 -10.8908 -2.91922
LeftUpLeg 19.92280811 0.3755883558 4.619640654
LeftLeg 5.02051363 0 0
LeftFoot -5.801948043 -0.182097339 -16.96887052
LeftToes 8.82235e-011 9.04645e-011 1.87288e-011
417
root 74.287781 38.165 -103.4909639 -173.0173033 74.94851064 -174.1497967
RightUpLeg -28.60418057 5.150699947 2.733328174
RightLeg 7.728027086 0 0
RightFoot 8.233577103 2.703715561 -0.5399428618
RightToes 2.32829e-010 -1.59028e-015 9.93923e-017
Spine -10.9399 -6.41197 -5.48148
Spine1 13.8472 -8.17579 6.99416
HEad -8.70126 5.58694 0.205254
LeftShoulder1 9.93923e-017 0 1.22299e-017
LeftArm 29.0531 20.3477 -79.6497
LeftForeArm -50.8804 -25.8241 16.4731
LeftHand 0.855054 6.00922 -1.12265
RightShoulder 1.98785e-016 -4.96962e-017 1.55301e-017
RightArm 8.52088 -61.6776 75.5044
RightForeArm -25.8572 15.2745 -0.718439
RightHand 1.12223 -10.8038 -3.2164
LeftUpLeg 20.03811094 -2.165935883 7.217124838
LeftLeg 9.424760116 0 0
LeftFoot -1.547059393 2.432170408 -22.63383237
LeftToes 8.82235e-011 9.04645e-011 1.87288e-011
418
root 76.04951531 38.0808 -103.5906408 -164.4651569 74.95664195 -164.9499896
RightUpLeg -28.48635984 5.754874773 5.504663439
RightLeg 13.06633593 0 0
RightFoot 9.273350728 3.738789345 -2.752358672
RightToes 2.32829e-010 -1.59028e-015 9.93923e-017
Spine -10.1178 -6.00399 -1.72661
Spine1 13.3684 -7.93258 6.7795
HEad -9.08561 4.90566 -0.295565
LeftShoulder1 9.93923e-017 0 1.22299e-017
LeftArm 24.5905 24.621 -81.2319
LeftForeArm -46.0359 -23.8681 12.0075
LeftHand 0.858088 6.00119 -1.52961
RightShoulder 1.98785e-016 -4.96962e-017 1.55301e-017
RightArm 7.0644 -60.6268 77.2965
RightForeArm -26.1256 15.4337 -1.01533
RightHand 1.12325 -10.7692 -3.33988
LeftUpLeg 17.13760747 -4.310179657 11.38710006
LeftLeg 19.24470981 0 0
LeftFoot 6.467177576 4.66771346 -26.4877389
LeftToes 8.82235e-011 9.04645e-011 1.87288e-011
419
root 77.63137324 37.9969 -103.6733563 -156.1607043 75.06289745 -155.8868639
RightUpLeg -28.04632172 4.989969077 8.577280682
RightLeg 18.31710699 0 0
RightFoot 6.124271646 5.757026373 -4.320258564
RightToes 2.32829e-010 -1.59028e-015 9.93923e-017
Spine -8.85864 -5.1147 2.15902
Spine1 13.2645 -6.98564 6.37604
HEad -10.1836 3.71447 -0.298579
LeftShoulder1 9.93923e-017 0 1.22299e-017
LeftArm 13.6046 27.8414 -82.5725
LeftForeArm -33.7381 -20.3283 4.26896
LeftHand 0.85281 5.94591 -1.68942
RightShoulder 1.98785e-016 -4.96962e-017 1.55301e-017
RightArm 4.79104 -57.8585 79.5258
RightForeArm -25.3247 15.0762 -0.454751
RightHand 1.12097 -10.7754 -3.21477
LeftUpLeg 12.36340101 -5.491568588 16.29334515
LeftLeg 31.40659552 0 0
LeftFoot 17.44536407 6.310059505 -26.41864453
LeftToes 8.82235e-011 9.04645e-011 1.87288e-011
420
root 79.07443301 37.9889 -103.7401991 -150.6133283 75.33107496 -149.7245991
RightUpLeg -26.78920695 4.198361272 10.68824164
RightLeg 22.01593122 0 0
RightFoot 1.933558952 7.287320252 -5.806251211
RightToes 2.32829e-010 -1.59028e-015 9.93923e-017
Spine -7.82617 -4.18321 4.85693
Spine1 13.5892 -5.81217 5.89013
HEad -11.1141 2.29806 0.547046
LeftShoulder1 9.93923e-017 0 1.22299e-017
LeftArm 2.37092 30.3708 -83.2703
LeftForeArm -21.1373 -14.5294 -2.58577
LeftHand 0.879318 6.09409 -2.61043
RightShoulder 1.98785e-016 -4.96962e-017 1.55301e-017
RightArm 3.13328 -53.2422 81.7141
RightForeArm -23.927 14.2745 0.861444
RightHand 1.12761 -10.7757 -3.38363
LeftUpLeg 6.712332176 -6.060109034 17.67572363
LeftLeg 41.16603955 1.577681289 4.980809763
LeftFoot 24.0456082 8.35751505 -22.69105608
LeftToes 8.82235e-011 9.04645e-011 1.87288e-011
421
root 80.52915855 38.2368 -103.8115124 -148.8887367 75.9444912 -147.6585758
RightUpLeg -24.1866706 4.621561712 11.41903309
RightLeg 22.66089159 0 0
RightFoot -0.5781088253 7.5946223 -6.830371713
RightToes 2.32829e-010 -1.59028e-015 9.93923e-017
Spine -7.471 -3.38381 6.01816
Spine1 13.8059 -4.71277 5.16031
HEad -10.7382 0.819757 1.88153
LeftShoulder1 9.93923e-017 0 1.22299e-017
LeftArm -1.51826 33.0471 -83.3931
LeftForeArm -15.0812 -9.44565 -6.17775
LeftHand 0.93976 6.5249 -4.42647
RightShoulder 1.98785e-016 -4.96962e-017 1.55301e-017
RightArm 4.08717 -48.0352 83.6402
RightForeArm -24.1846 14.0368 1.48387
RightHand 1.15347 -10.7282 -4.27077
LeftUpLeg 0.7221567307 -6.631210432 16.77580435
LeftLeg 48.99109491 1.964679407 9.687024571
LeftFoot 23.9814116 7.020300058 -18.88380329
LeftToes 8.82235e-011 9.04645e-011 1.87288e-011
422
root 82.0550881 38.6402 -103.9129116 -149.5781284 77.13131646 -148.2111093
RightUpLeg -20.77224365 4.927504136 11.34534269
RightLeg 21.53044999 0 0
RightFoot -2.241476386 8.188514412 -7.125536704
RightToes 2.32829e-010 -1.59028e-015 9.93923e-017
Spine -7.67037 -2.51773 6.47335
Spine1 13.688 -3.46845 3.80072
HEad -9.14405 -0.707546 2.91489
LeftShoulder1 9.93923e-017 0 1.22299e-017
LeftArm 1.10318 36.3486 -82.924
LeftForeArm -14.1159 -7.68597 -7.38561
LeftHand 1.00284 7.13454 -6.18465
RightShoulder 1.98785e-016 -4.96962e-017 1.55301e-017
RightArm 7.34038 -43.5911 85.2189
RightForeArm -27.2352 15.2275 0.003924370001
RightHand 1.18297 -10.6363 -5.35387
LeftUpLeg -4.968541899 -7.219149172 14.32132656
LeftLeg 53.29289548 0.9632679622 12.56832304
LeftFoot 20.22370796 4.999557026 -15.04342934
LeftToes 8.82235e-011 9.04645e-011 1.87288e-011
423
root 83.5888151 38.9605 -103.8919888 -149.3362344 79.06830034 -147.8632524
RightUpLeg -17.31431226 4.537586931 11.31499896
RightLeg 20.32901909 0 0
RightFoot -4.186601101 9.974426548 -7.265675051
RightToes 2.32829e-010 -1.59028e-015 9.93923e-017
Spine -7.83645 -1.43061 7.21708
Spine1 13.4939 -1.89804 1.99475
HEad -7.51557 -2.16027 3.22743
LeftShoulder1 9.93923e-017 0 1.22299e-017
LeftArm 3.31971 40.2464 -81.5602
LeftForeArm -12.7848 -8.16886 -7.155
LeftHand 1.03904 7.59664 -7.14162
RightShoulder 1.98785e-016 -4.96962e-017 1.55301e-017
RightArm 13.4859 -40.2862 86.3907
RightForeArm -35.0111 17.704 -4.95831
RightHand 1.18406 -10.5387 -5.75478
LeftUpLeg -10.19137103 -7.626729443 11.59541141
LeftLeg 54.86655116 -0.9124149897 12.27834422
LeftFoot 16.46904014 3.89055168 -13.37112862
LeftToes 8.82235e-011 9.04645e-011 1.87288e-011
424
root 85.08999424 39.1443 -103.780397 -146.2032168 81.48145569 -144.5870749
RightUpLeg -14.1471064 4.054137348 11.32090925
RightLeg 19.69633166 0 0
RightFoot -6.281342768 12.51232748 -7.951535254
RightToes 2.32829e-010 -1.59028e-015 9.93923e-017
Spine -7.68166 -0.17435 8.22232
Spine1 13.3304 -0.160738 0.328532
HEad -6.7365 -3.35321 3.01867
LeftShoulder1 9.93923e-017 0 1.22299e-017
LeftArm 5.60205 44.353 -79.4347
LeftForeArm -13.5077 -8.53464 -6.98397
LeftHand 1.03691 7.58639 -7.36546
RightShoulder 1.98785e-016 -4.96962e-017 1.55301e-017
RightArm 23.2456 -37.7105 87.0416
RightForeArm -47.9143 19.9529 -13.667
RightHand 1.16294 -10.4491 -5.53183
LeftUpLeg -14.86756169 -7.442452011 9.278660463
LeftLeg 54.24802359 -3.026309336 9.799314905
LeftFoot 13.31367963 3.236540046 -12.82117158
LeftToes 8.82235e-011 9.04645e-011 1.87288e-011
